<?xml version="1.0" encoding="utf-8"?>
<!-- Generator: Adobe Illustrator 24.2.1, SVG Export Plug-In . SVG Version: 6.00 Build 0)  -->
<svg version="1.1" id="Layer_1" xmlns="http://www.w3.org/2000/svg" xmlns:xlink="http://www.w3.org/1999/xlink" x="0px" y="0px"
	 viewBox="0 0 18 18" style="enable-background:new 0 0 18 18;" xml:space="preserve">
<style type="text/css">
	.st0{fill:#FF13DC;fill-opacity:0;}
	.st1{fill:#6E6E6E;}
</style>
<rect id="Canvas" class="st0" width="18" height="18"/>
<path class="st1" d="M17.8,6.6c0-0.1-0.1-0.3-0.2-0.3L11.4,6L9.2,0.3c0-0.1-0.1-0.1-0.1-0.1C9,0.1,8.8,0.2,8.8,0.3L6.6,6L0.5,6.3
	c-0.1,0-0.2,0-0.2,0.1c-0.1,0.1-0.1,0.3,0,0.4l4.8,3.8l-1.6,5.9c0,0.1,0,0.1,0,0.2c0.1,0.1,0.2,0.2,0.4,0.1L9,13.4l5.1,3.4
	c0.1,0,0.1,0,0.2,0c0.1,0,0.2-0.2,0.2-0.3l-1.6-5.9l4.8-3.8C17.7,6.7,17.8,6.6,17.8,6.6z M15.7,7.4l-3.7,3l1.2,4.5
	c0,0.1,0,0.2-0.1,0.2c0,0-0.1,0-0.2,0L9,12.5l-3.9,2.6c-0.1,0.1-0.2,0-0.3-0.1c0,0,0-0.1,0-0.2L6,10.4l-3.7-3
	c-0.1-0.1-0.1-0.2,0-0.3c0-0.1,0.1-0.1,0.2-0.1l4.7-0.2l1.7-4.4c0-0.1,0.1-0.2,0.2-0.1c0,0,0.1,0.1,0.1,0.1l1.7,4.4l4.7,0.2
	c0.1,0,0.2,0.1,0.2,0.2C15.8,7.3,15.7,7.4,15.7,7.4z"/>
</svg>
